<svg xmlns="http://www.w3.org/2000/svg" viewBox="0 0 120 120" width="120" height="120" role="img" aria-label="BookiDesk">
  <rect width="120" height="120" rx="26" fill="#2a1016"/>
  <g transform="translate(12,12)">
    <!-- páginas -->
    <rect x="22" y="14" width="62" height="72" rx="8" fill="#f2e7cf" stroke="#331016" stroke-width="3"/>
    <line x1="78" y1="21" x2="78" y2="79" stroke="#d9c49a" stroke-width="2"/>
    <line x1="81.5" y1="23" x2="81.5" y2="77" stroke="#d9c49a" stroke-width="2"/>
    <!-- pasta -->
    <rect x="12" y="8" width="64" height="74" rx="10" fill="#722033" stroke="#331016" stroke-width="3"/>
    <path d="M13.5 18 A8.5 8.5 0 0 1 22 9.5 L28 9.5 L28 80.5 L22 80.5 A8.5 8.5 0 0 1 13.5 72 Z" fill="#4d1322"/>
    <rect x="13.5" y="24" width="14.5" height="5" fill="#d4a94e"/>
    <rect x="13.5" y="62" width="14.5" height="5" fill="#d4a94e"/>
    <!-- lente -->
    <circle cx="54" cy="38" r="16" fill="#d4a94e" stroke="#331016" stroke-width="3"/>
    <circle cx="54" cy="38" r="10" fill="#23374d"/>
    <circle cx="58" cy="34" r="3.5" fill="#f2e7cf" opacity="0.9"/>
    <!-- indicadores -->
    <circle cx="44" cy="68" r="3" fill="#d4a94e"/>
    <circle cx="54" cy="68" r="3" fill="#f2e7cf" opacity="0.85"/>
    <circle cx="64" cy="68" r="3" fill="#f2e7cf" opacity="0.45"/>
  </g>
</svg>
